<mxfile host="app.diagrams.net" agent="Mozilla/5.0 (Macintosh; Intel Mac OS X 10_15_7) AppleWebKit/537.36 (KHTML, like Gecko) Chrome/137.0.0.0 Safari/537.36" version="27.2.0">
  <diagram name="Page-1" id="iAphezOFa99UJ-oBuJiD">
    <mxGraphModel dx="2329" dy="832" grid="1" gridSize="10" guides="1" tooltips="1" connect="1" arrows="1" fold="1" page="1" pageScale="1" pageWidth="827" pageHeight="1169" math="0" shadow="0">
      <root>
        <mxCell id="0" />
        <mxCell id="1" parent="0" />
        <mxCell id="lV9lPM0QWTWmAlKWghgH-2" value="Ms_Pelanggan" style="rounded=0;whiteSpace=wrap;html=1;" vertex="1" parent="1">
          <mxGeometry x="160" y="160" width="120" height="60" as="geometry" />
        </mxCell>
        <mxCell id="lV9lPM0QWTWmAlKWghgH-6" style="rounded=0;orthogonalLoop=1;jettySize=auto;html=1;exitX=1;exitY=0.5;exitDx=0;exitDy=0;entryX=0;entryY=0.5;entryDx=0;entryDy=0;endArrow=none;endFill=0;" edge="1" parent="1" source="lV9lPM0QWTWmAlKWghgH-3" target="lV9lPM0QWTWmAlKWghgH-2">
          <mxGeometry relative="1" as="geometry" />
        </mxCell>
        <mxCell id="lV9lPM0QWTWmAlKWghgH-3" value="&lt;u&gt;idPelanggan&lt;/u&gt;" style="ellipse;whiteSpace=wrap;html=1;" vertex="1" parent="1">
          <mxGeometry x="-20" y="120" width="120" height="40" as="geometry" />
        </mxCell>
        <mxCell id="lV9lPM0QWTWmAlKWghgH-7" style="edgeStyle=none;shape=connector;rounded=0;orthogonalLoop=1;jettySize=auto;html=1;exitX=1;exitY=0.5;exitDx=0;exitDy=0;entryX=0;entryY=0.5;entryDx=0;entryDy=0;strokeColor=default;align=center;verticalAlign=middle;fontFamily=Helvetica;fontSize=11;fontColor=default;labelBackgroundColor=default;endArrow=none;endFill=0;" edge="1" parent="1" source="lV9lPM0QWTWmAlKWghgH-4" target="lV9lPM0QWTWmAlKWghgH-2">
          <mxGeometry relative="1" as="geometry" />
        </mxCell>
        <mxCell id="lV9lPM0QWTWmAlKWghgH-4" value="nama_pelanggan" style="ellipse;whiteSpace=wrap;html=1;" vertex="1" parent="1">
          <mxGeometry x="-20" y="160" width="120" height="40" as="geometry" />
        </mxCell>
        <mxCell id="lV9lPM0QWTWmAlKWghgH-8" style="edgeStyle=none;shape=connector;rounded=0;orthogonalLoop=1;jettySize=auto;html=1;exitX=1;exitY=0.5;exitDx=0;exitDy=0;entryX=0;entryY=0.5;entryDx=0;entryDy=0;strokeColor=default;align=center;verticalAlign=middle;fontFamily=Helvetica;fontSize=11;fontColor=default;labelBackgroundColor=default;endArrow=none;endFill=0;" edge="1" parent="1" source="lV9lPM0QWTWmAlKWghgH-5" target="lV9lPM0QWTWmAlKWghgH-2">
          <mxGeometry relative="1" as="geometry" />
        </mxCell>
        <mxCell id="lV9lPM0QWTWmAlKWghgH-5" value="no_hp" style="ellipse;whiteSpace=wrap;html=1;" vertex="1" parent="1">
          <mxGeometry x="-20" y="200" width="120" height="40" as="geometry" />
        </mxCell>
        <mxCell id="lV9lPM0QWTWmAlKWghgH-9" value="Ms_Kasir" style="rounded=0;whiteSpace=wrap;html=1;" vertex="1" parent="1">
          <mxGeometry x="160" y="360" width="120" height="60" as="geometry" />
        </mxCell>
        <mxCell id="lV9lPM0QWTWmAlKWghgH-10" style="rounded=0;orthogonalLoop=1;jettySize=auto;html=1;exitX=1;exitY=0.5;exitDx=0;exitDy=0;entryX=0;entryY=0.5;entryDx=0;entryDy=0;endArrow=none;endFill=0;" edge="1" parent="1" source="lV9lPM0QWTWmAlKWghgH-11" target="lV9lPM0QWTWmAlKWghgH-9">
          <mxGeometry relative="1" as="geometry" />
        </mxCell>
        <mxCell id="lV9lPM0QWTWmAlKWghgH-11" value="&lt;u&gt;idKasir&lt;/u&gt;" style="ellipse;whiteSpace=wrap;html=1;" vertex="1" parent="1">
          <mxGeometry x="-20" y="290" width="120" height="40" as="geometry" />
        </mxCell>
        <mxCell id="lV9lPM0QWTWmAlKWghgH-12" style="edgeStyle=none;shape=connector;rounded=0;orthogonalLoop=1;jettySize=auto;html=1;exitX=1;exitY=0.5;exitDx=0;exitDy=0;entryX=0;entryY=0.5;entryDx=0;entryDy=0;strokeColor=default;align=center;verticalAlign=middle;fontFamily=Helvetica;fontSize=11;fontColor=default;labelBackgroundColor=default;endArrow=none;endFill=0;" edge="1" parent="1" source="lV9lPM0QWTWmAlKWghgH-13" target="lV9lPM0QWTWmAlKWghgH-9">
          <mxGeometry relative="1" as="geometry" />
        </mxCell>
        <mxCell id="lV9lPM0QWTWmAlKWghgH-13" value="nama_kasir" style="ellipse;whiteSpace=wrap;html=1;" vertex="1" parent="1">
          <mxGeometry x="-20" y="330" width="120" height="40" as="geometry" />
        </mxCell>
        <mxCell id="lV9lPM0QWTWmAlKWghgH-14" style="edgeStyle=none;shape=connector;rounded=0;orthogonalLoop=1;jettySize=auto;html=1;exitX=1;exitY=0.5;exitDx=0;exitDy=0;entryX=0;entryY=0.5;entryDx=0;entryDy=0;strokeColor=default;align=center;verticalAlign=middle;fontFamily=Helvetica;fontSize=11;fontColor=default;labelBackgroundColor=default;endArrow=none;endFill=0;" edge="1" parent="1" source="lV9lPM0QWTWmAlKWghgH-15" target="lV9lPM0QWTWmAlKWghgH-9">
          <mxGeometry relative="1" as="geometry" />
        </mxCell>
        <mxCell id="lV9lPM0QWTWmAlKWghgH-15" value="no_hp" style="ellipse;whiteSpace=wrap;html=1;" vertex="1" parent="1">
          <mxGeometry x="-20" y="370" width="120" height="40" as="geometry" />
        </mxCell>
        <mxCell id="lV9lPM0QWTWmAlKWghgH-18" style="edgeStyle=none;shape=connector;rounded=0;orthogonalLoop=1;jettySize=auto;html=1;exitX=1;exitY=0.5;exitDx=0;exitDy=0;strokeColor=default;align=center;verticalAlign=middle;fontFamily=Helvetica;fontSize=11;fontColor=default;labelBackgroundColor=default;endArrow=none;endFill=0;" edge="1" parent="1" source="lV9lPM0QWTWmAlKWghgH-16">
          <mxGeometry relative="1" as="geometry">
            <mxPoint x="159.99999999999977" y="390" as="targetPoint" />
          </mxGeometry>
        </mxCell>
        <mxCell id="lV9lPM0QWTWmAlKWghgH-16" value="username" style="ellipse;whiteSpace=wrap;html=1;" vertex="1" parent="1">
          <mxGeometry x="-20" y="410" width="120" height="40" as="geometry" />
        </mxCell>
        <mxCell id="lV9lPM0QWTWmAlKWghgH-19" style="edgeStyle=none;shape=connector;rounded=0;orthogonalLoop=1;jettySize=auto;html=1;exitX=1;exitY=0.5;exitDx=0;exitDy=0;entryX=0;entryY=0.5;entryDx=0;entryDy=0;strokeColor=default;align=center;verticalAlign=middle;fontFamily=Helvetica;fontSize=11;fontColor=default;labelBackgroundColor=default;endArrow=none;endFill=0;" edge="1" parent="1" source="lV9lPM0QWTWmAlKWghgH-17" target="lV9lPM0QWTWmAlKWghgH-9">
          <mxGeometry relative="1" as="geometry" />
        </mxCell>
        <mxCell id="lV9lPM0QWTWmAlKWghgH-17" value="password" style="ellipse;whiteSpace=wrap;html=1;" vertex="1" parent="1">
          <mxGeometry x="-20" y="450" width="120" height="40" as="geometry" />
        </mxCell>
        <mxCell id="lV9lPM0QWTWmAlKWghgH-20" value="Ms_Toko" style="rounded=0;whiteSpace=wrap;html=1;" vertex="1" parent="1">
          <mxGeometry x="160" y="600" width="120" height="60" as="geometry" />
        </mxCell>
        <mxCell id="lV9lPM0QWTWmAlKWghgH-21" style="rounded=0;orthogonalLoop=1;jettySize=auto;html=1;exitX=1;exitY=0.5;exitDx=0;exitDy=0;entryX=0;entryY=0.5;entryDx=0;entryDy=0;endArrow=none;endFill=0;" edge="1" parent="1" source="lV9lPM0QWTWmAlKWghgH-22" target="lV9lPM0QWTWmAlKWghgH-20">
          <mxGeometry relative="1" as="geometry" />
        </mxCell>
        <mxCell id="lV9lPM0QWTWmAlKWghgH-22" value="&lt;u&gt;idToko&lt;/u&gt;" style="ellipse;whiteSpace=wrap;html=1;" vertex="1" parent="1">
          <mxGeometry x="-20" y="550" width="120" height="40" as="geometry" />
        </mxCell>
        <mxCell id="lV9lPM0QWTWmAlKWghgH-23" style="edgeStyle=none;shape=connector;rounded=0;orthogonalLoop=1;jettySize=auto;html=1;exitX=1;exitY=0.5;exitDx=0;exitDy=0;entryX=0;entryY=0.5;entryDx=0;entryDy=0;strokeColor=default;align=center;verticalAlign=middle;fontFamily=Helvetica;fontSize=11;fontColor=default;labelBackgroundColor=default;endArrow=none;endFill=0;" edge="1" parent="1" source="lV9lPM0QWTWmAlKWghgH-24" target="lV9lPM0QWTWmAlKWghgH-20">
          <mxGeometry relative="1" as="geometry" />
        </mxCell>
        <mxCell id="lV9lPM0QWTWmAlKWghgH-24" value="nama_toko" style="ellipse;whiteSpace=wrap;html=1;" vertex="1" parent="1">
          <mxGeometry x="-20" y="590" width="120" height="40" as="geometry" />
        </mxCell>
        <mxCell id="lV9lPM0QWTWmAlKWghgH-25" style="edgeStyle=none;shape=connector;rounded=0;orthogonalLoop=1;jettySize=auto;html=1;exitX=1;exitY=0.5;exitDx=0;exitDy=0;entryX=0;entryY=0.5;entryDx=0;entryDy=0;strokeColor=default;align=center;verticalAlign=middle;fontFamily=Helvetica;fontSize=11;fontColor=default;labelBackgroundColor=default;endArrow=none;endFill=0;" edge="1" parent="1" source="lV9lPM0QWTWmAlKWghgH-26" target="lV9lPM0QWTWmAlKWghgH-20">
          <mxGeometry relative="1" as="geometry" />
        </mxCell>
        <mxCell id="lV9lPM0QWTWmAlKWghgH-26" value="alamat" style="ellipse;whiteSpace=wrap;html=1;" vertex="1" parent="1">
          <mxGeometry x="-20" y="630" width="120" height="40" as="geometry" />
        </mxCell>
        <mxCell id="lV9lPM0QWTWmAlKWghgH-27" style="edgeStyle=none;shape=connector;rounded=0;orthogonalLoop=1;jettySize=auto;html=1;exitX=1;exitY=0.5;exitDx=0;exitDy=0;strokeColor=default;align=center;verticalAlign=middle;fontFamily=Helvetica;fontSize=11;fontColor=default;labelBackgroundColor=default;endArrow=none;endFill=0;" edge="1" parent="1" source="lV9lPM0QWTWmAlKWghgH-28">
          <mxGeometry relative="1" as="geometry">
            <mxPoint x="159.99999999999977" y="630" as="targetPoint" />
          </mxGeometry>
        </mxCell>
        <mxCell id="lV9lPM0QWTWmAlKWghgH-28" value="no_tlp" style="ellipse;whiteSpace=wrap;html=1;" vertex="1" parent="1">
          <mxGeometry x="-20" y="670" width="120" height="40" as="geometry" />
        </mxCell>
        <mxCell id="lV9lPM0QWTWmAlKWghgH-31" value="Ms_Parfum" style="rounded=0;whiteSpace=wrap;html=1;" vertex="1" parent="1">
          <mxGeometry x="160" y="800" width="120" height="60" as="geometry" />
        </mxCell>
        <mxCell id="lV9lPM0QWTWmAlKWghgH-32" style="rounded=0;orthogonalLoop=1;jettySize=auto;html=1;exitX=1;exitY=0.5;exitDx=0;exitDy=0;entryX=0;entryY=0.5;entryDx=0;entryDy=0;endArrow=none;endFill=0;" edge="1" parent="1" source="lV9lPM0QWTWmAlKWghgH-33" target="lV9lPM0QWTWmAlKWghgH-31">
          <mxGeometry relative="1" as="geometry" />
        </mxCell>
        <mxCell id="lV9lPM0QWTWmAlKWghgH-33" value="&lt;u&gt;idParfum&lt;/u&gt;" style="ellipse;whiteSpace=wrap;html=1;" vertex="1" parent="1">
          <mxGeometry x="-20" y="760" width="120" height="40" as="geometry" />
        </mxCell>
        <mxCell id="lV9lPM0QWTWmAlKWghgH-34" style="edgeStyle=none;shape=connector;rounded=0;orthogonalLoop=1;jettySize=auto;html=1;exitX=1;exitY=0.5;exitDx=0;exitDy=0;entryX=0;entryY=0.5;entryDx=0;entryDy=0;strokeColor=default;align=center;verticalAlign=middle;fontFamily=Helvetica;fontSize=11;fontColor=default;labelBackgroundColor=default;endArrow=none;endFill=0;" edge="1" parent="1" source="lV9lPM0QWTWmAlKWghgH-35" target="lV9lPM0QWTWmAlKWghgH-31">
          <mxGeometry relative="1" as="geometry" />
        </mxCell>
        <mxCell id="lV9lPM0QWTWmAlKWghgH-35" value="nama_parfum" style="ellipse;whiteSpace=wrap;html=1;" vertex="1" parent="1">
          <mxGeometry x="-20" y="800" width="120" height="40" as="geometry" />
        </mxCell>
        <mxCell id="lV9lPM0QWTWmAlKWghgH-36" style="edgeStyle=none;shape=connector;rounded=0;orthogonalLoop=1;jettySize=auto;html=1;exitX=1;exitY=0.5;exitDx=0;exitDy=0;entryX=0;entryY=0.5;entryDx=0;entryDy=0;strokeColor=default;align=center;verticalAlign=middle;fontFamily=Helvetica;fontSize=11;fontColor=default;labelBackgroundColor=default;endArrow=none;endFill=0;" edge="1" parent="1" source="lV9lPM0QWTWmAlKWghgH-37" target="lV9lPM0QWTWmAlKWghgH-31">
          <mxGeometry relative="1" as="geometry" />
        </mxCell>
        <mxCell id="lV9lPM0QWTWmAlKWghgH-37" value="stok_tersedia" style="ellipse;whiteSpace=wrap;html=1;" vertex="1" parent="1">
          <mxGeometry x="-20" y="840" width="120" height="40" as="geometry" />
        </mxCell>
        <mxCell id="lV9lPM0QWTWmAlKWghgH-38" value="Trx_Laundry" style="rounded=0;whiteSpace=wrap;html=1;" vertex="1" parent="1">
          <mxGeometry x="720" y="480" width="120" height="60" as="geometry" />
        </mxCell>
        <mxCell id="lV9lPM0QWTWmAlKWghgH-48" style="edgeStyle=none;shape=connector;rounded=0;orthogonalLoop=1;jettySize=auto;html=1;exitX=0;exitY=0.5;exitDx=0;exitDy=0;entryX=1;entryY=0.5;entryDx=0;entryDy=0;strokeColor=default;align=center;verticalAlign=middle;fontFamily=Helvetica;fontSize=11;fontColor=default;labelBackgroundColor=default;endArrow=none;endFill=0;" edge="1" parent="1" source="lV9lPM0QWTWmAlKWghgH-39" target="lV9lPM0QWTWmAlKWghgH-38">
          <mxGeometry relative="1" as="geometry" />
        </mxCell>
        <mxCell id="lV9lPM0QWTWmAlKWghgH-39" value="&lt;u&gt;no_struk&lt;/u&gt;" style="ellipse;whiteSpace=wrap;html=1;" vertex="1" parent="1">
          <mxGeometry x="880" y="330" width="120" height="40" as="geometry" />
        </mxCell>
        <mxCell id="lV9lPM0QWTWmAlKWghgH-49" style="edgeStyle=none;shape=connector;rounded=0;orthogonalLoop=1;jettySize=auto;html=1;exitX=0;exitY=0.5;exitDx=0;exitDy=0;strokeColor=default;align=center;verticalAlign=middle;fontFamily=Helvetica;fontSize=11;fontColor=default;labelBackgroundColor=default;endArrow=none;endFill=0;" edge="1" parent="1" source="lV9lPM0QWTWmAlKWghgH-40">
          <mxGeometry relative="1" as="geometry">
            <mxPoint x="840" y="510" as="targetPoint" />
          </mxGeometry>
        </mxCell>
        <mxCell id="lV9lPM0QWTWmAlKWghgH-40" value="idParfum" style="ellipse;whiteSpace=wrap;html=1;" vertex="1" parent="1">
          <mxGeometry x="880" y="370" width="120" height="40" as="geometry" />
        </mxCell>
        <mxCell id="lV9lPM0QWTWmAlKWghgH-50" style="edgeStyle=none;shape=connector;rounded=0;orthogonalLoop=1;jettySize=auto;html=1;exitX=0;exitY=0.5;exitDx=0;exitDy=0;strokeColor=default;align=center;verticalAlign=middle;fontFamily=Helvetica;fontSize=11;fontColor=default;labelBackgroundColor=default;endArrow=none;endFill=0;" edge="1" parent="1" source="lV9lPM0QWTWmAlKWghgH-41">
          <mxGeometry relative="1" as="geometry">
            <mxPoint x="840" y="510" as="targetPoint" />
          </mxGeometry>
        </mxCell>
        <mxCell id="lV9lPM0QWTWmAlKWghgH-41" value="idPelanggan" style="ellipse;whiteSpace=wrap;html=1;" vertex="1" parent="1">
          <mxGeometry x="880" y="410" width="120" height="40" as="geometry" />
        </mxCell>
        <mxCell id="lV9lPM0QWTWmAlKWghgH-51" style="edgeStyle=none;shape=connector;rounded=0;orthogonalLoop=1;jettySize=auto;html=1;exitX=0;exitY=0.5;exitDx=0;exitDy=0;strokeColor=default;align=center;verticalAlign=middle;fontFamily=Helvetica;fontSize=11;fontColor=default;labelBackgroundColor=default;endArrow=none;endFill=0;" edge="1" parent="1" source="lV9lPM0QWTWmAlKWghgH-42">
          <mxGeometry relative="1" as="geometry">
            <mxPoint x="840" y="510" as="targetPoint" />
          </mxGeometry>
        </mxCell>
        <mxCell id="lV9lPM0QWTWmAlKWghgH-42" value="idKasir" style="ellipse;whiteSpace=wrap;html=1;" vertex="1" parent="1">
          <mxGeometry x="880" y="450" width="120" height="40" as="geometry" />
        </mxCell>
        <mxCell id="lV9lPM0QWTWmAlKWghgH-52" value="" style="edgeStyle=none;shape=connector;rounded=0;orthogonalLoop=1;jettySize=auto;html=1;strokeColor=default;align=center;verticalAlign=middle;fontFamily=Helvetica;fontSize=11;fontColor=default;labelBackgroundColor=default;endArrow=none;endFill=0;" edge="1" parent="1" source="lV9lPM0QWTWmAlKWghgH-43" target="lV9lPM0QWTWmAlKWghgH-38">
          <mxGeometry relative="1" as="geometry" />
        </mxCell>
        <mxCell id="lV9lPM0QWTWmAlKWghgH-43" value="idToko" style="ellipse;whiteSpace=wrap;html=1;" vertex="1" parent="1">
          <mxGeometry x="880" y="490" width="120" height="40" as="geometry" />
        </mxCell>
        <mxCell id="lV9lPM0QWTWmAlKWghgH-53" style="edgeStyle=none;shape=connector;rounded=0;orthogonalLoop=1;jettySize=auto;html=1;exitX=0;exitY=0.5;exitDx=0;exitDy=0;entryX=1;entryY=0.5;entryDx=0;entryDy=0;strokeColor=default;align=center;verticalAlign=middle;fontFamily=Helvetica;fontSize=11;fontColor=default;labelBackgroundColor=default;endArrow=none;endFill=0;" edge="1" parent="1" source="lV9lPM0QWTWmAlKWghgH-44" target="lV9lPM0QWTWmAlKWghgH-38">
          <mxGeometry relative="1" as="geometry" />
        </mxCell>
        <mxCell id="lV9lPM0QWTWmAlKWghgH-44" value="grand_total" style="ellipse;whiteSpace=wrap;html=1;" vertex="1" parent="1">
          <mxGeometry x="880" y="530" width="120" height="40" as="geometry" />
        </mxCell>
        <mxCell id="lV9lPM0QWTWmAlKWghgH-54" style="edgeStyle=none;shape=connector;rounded=0;orthogonalLoop=1;jettySize=auto;html=1;exitX=0;exitY=0.5;exitDx=0;exitDy=0;strokeColor=default;align=center;verticalAlign=middle;fontFamily=Helvetica;fontSize=11;fontColor=default;labelBackgroundColor=default;endArrow=none;endFill=0;" edge="1" parent="1" source="lV9lPM0QWTWmAlKWghgH-45">
          <mxGeometry relative="1" as="geometry">
            <mxPoint x="840" y="510" as="targetPoint" />
          </mxGeometry>
        </mxCell>
        <mxCell id="lV9lPM0QWTWmAlKWghgH-45" value="dp" style="ellipse;whiteSpace=wrap;html=1;" vertex="1" parent="1">
          <mxGeometry x="880" y="570" width="120" height="40" as="geometry" />
        </mxCell>
        <mxCell id="lV9lPM0QWTWmAlKWghgH-55" style="edgeStyle=none;shape=connector;rounded=0;orthogonalLoop=1;jettySize=auto;html=1;exitX=0;exitY=0.5;exitDx=0;exitDy=0;entryX=1;entryY=0.5;entryDx=0;entryDy=0;strokeColor=default;align=center;verticalAlign=middle;fontFamily=Helvetica;fontSize=11;fontColor=default;labelBackgroundColor=default;endArrow=none;endFill=0;" edge="1" parent="1" source="lV9lPM0QWTWmAlKWghgH-46" target="lV9lPM0QWTWmAlKWghgH-38">
          <mxGeometry relative="1" as="geometry" />
        </mxCell>
        <mxCell id="lV9lPM0QWTWmAlKWghgH-46" value="sisa" style="ellipse;whiteSpace=wrap;html=1;" vertex="1" parent="1">
          <mxGeometry x="880" y="610" width="120" height="40" as="geometry" />
        </mxCell>
        <mxCell id="lV9lPM0QWTWmAlKWghgH-56" style="edgeStyle=none;shape=connector;rounded=0;orthogonalLoop=1;jettySize=auto;html=1;exitX=0;exitY=0.5;exitDx=0;exitDy=0;entryX=1;entryY=0.5;entryDx=0;entryDy=0;strokeColor=default;align=center;verticalAlign=middle;fontFamily=Helvetica;fontSize=11;fontColor=default;labelBackgroundColor=default;endArrow=none;endFill=0;" edge="1" parent="1" source="lV9lPM0QWTWmAlKWghgH-47" target="lV9lPM0QWTWmAlKWghgH-38">
          <mxGeometry relative="1" as="geometry" />
        </mxCell>
        <mxCell id="lV9lPM0QWTWmAlKWghgH-47" value="tgl_transaksi" style="ellipse;whiteSpace=wrap;html=1;" vertex="1" parent="1">
          <mxGeometry x="880" y="650" width="120" height="40" as="geometry" />
        </mxCell>
      </root>
    </mxGraphModel>
  </diagram>
</mxfile>
